<?xml version="1.0" standalone="no"?>
<!DOCTYPE svg PUBLIC "-//W3C//DTD SVG 20010904//EN"
 "http://www.w3.org/TR/2001/REC-SVG-20010904/DTD/svg10.dtd">
<svg version="1.0" xmlns="http://www.w3.org/2000/svg"
 width="512.000000pt" height="512.000000pt" viewBox="0 0 512.000000 512.000000"
 preserveAspectRatio="xMidYMid meet">

<g transform="translate(0.000000,512.000000) scale(0.100000,-0.100000)"
fill="#000000" stroke="none">
<path d="M1615 4786 c-13 -13 -27 -35 -29 -48 -3 -12 -31 -734 -61 -1604 l-56
-1581 70 -574 c39 -316 73 -585 76 -597 3 -13 17 -35 30 -48 l24 -24 891 0
891 0 24 24 c13 13 27 35 30 48 2 12 37 282 75 599 l71 576 -14 368 -13 368
-32 28 c-26 23 -42 29 -78 29 l-45 0 6 48 c3 26 28 292 56 592 l50 545 -11
310 c-6 171 -16 323 -22 338 -21 55 -37 57 -387 57 l-319 0 -4 254 -3 255 -29
30 -30 31 -568 0 -569 0 -24 -24z m1025 -428 l5 -258 28 -27 27 -28 330 -3
330 -3 4 -22 c3 -12 7 -102 10 -199 l5 -178 -335 0 -336 0 -29 -29 -29 -29 0
-667 c0 -730 -1 -719 59 -749 25 -14 81 -16 375 -16 l344 0 6 -102 c3 -57 8
-167 11 -245 l6 -143 -892 0 -892 0 6 98 c3 53 27 709 52 1457 26 748 49 1370
51 1383 l4 22 428 -2 427 -3 5 -257z"/>
</g>
</svg>
